<svg width="90" height="90" viewBox="0 0 90 90" fill="none" xmlns="http://www.w3.org/2000/svg">
<path d="M86 25.7855C86 23.8147 85.7433 21.8943 85.2621 20.0747C84.8404 18.4751 82.8696 18.0947 81.7054 19.2635L73.8083 27.1605C73.056 27.9129 72.1628 28.5097 71.1798 28.9169C70.1968 29.3241 69.1432 29.5336 68.0792 29.5336C67.0152 29.5336 65.9616 29.3241 64.9786 28.9169C63.9956 28.5097 63.1024 27.9129 62.35 27.1605C61.5976 26.4082 61.0008 25.515 60.5937 24.532C60.1865 23.549 59.9769 22.4954 59.9769 21.4314C59.9769 20.3674 60.1865 19.3138 60.5937 18.3308C61.0008 17.3478 61.5976 16.4546 62.35 15.7022L70.2471 7.80971C71.4158 6.64096 71.0354 4.67013 69.4358 4.24846C65.5143 3.20539 61.3823 3.25338 57.486 4.38725C53.5897 5.52112 50.0772 7.69779 47.3277 10.6822C44.5782 13.6667 42.6962 17.3455 41.8849 21.3215C41.0736 25.2975 41.3638 29.4196 42.7242 33.2426C43.0496 34.1593 42.8662 35.186 42.1833 35.8689L4.875 73.1772C3.04167 75.0106 3.04167 77.9851 4.875 79.8139L9.69667 84.6355C11.53 86.4689 14.4954 86.4689 16.3287 84.6355L53.6371 47.3272C54.3246 46.6397 55.3513 46.4564 56.2633 46.7818C59.6248 47.9769 63.2241 48.347 66.7584 47.8612C70.2927 47.3754 73.6586 46.0478 76.5729 43.9901C79.4872 41.9323 81.8647 39.2047 83.5052 36.0368C85.1457 32.8688 86.0013 29.3531 86 25.7855Z" stroke="#FD7F16" stroke-width="7" stroke-linecap="round" stroke-linejoin="round"/>
</svg>
