<svg width="126" height="89" viewBox="0 0 126 89" fill="none" xmlns="http://www.w3.org/2000/svg">
<path d="M68.6528 69.6145V19.5007C68.843 16.536 73.5024 16.6316 73.5024 19.5007C73.5024 24.3083 73.4907 30.8712 73.4787 37.6525C73.4534 51.9155 73.4264 67.1447 73.5024 69.0407C73.652 72.7731 68.8106 72.7852 68.6528 69.6145Z" fill="#FD7F16"/>
<path d="M78.6839 66.3456V22.4102C78.8741 19.811 83.5334 19.8948 83.5334 22.4102C83.5334 26.6251 83.5218 32.3789 83.5098 38.3241C83.4845 50.8286 83.4574 64.1803 83.5334 65.8425C83.683 69.1148 78.8416 69.1254 78.6839 66.3456Z" fill="#FD7F16"/>
<path d="M88.2031 63.614V25.3422C88.3933 23.078 93.0527 23.1511 93.0527 25.3422C93.0527 29.0138 93.041 34.0258 93.029 39.2047C93.0037 50.0973 92.9767 61.7278 93.0527 63.1758C93.2022 66.0262 88.3608 66.0355 88.2031 63.614Z" fill="#FD7F16"/>
<path d="M97.1624 61.5436V27.0475C97.3525 25.0067 102.012 25.0725 102.012 27.0475C102.012 30.3568 102 34.8744 101.988 39.5424C101.963 49.3604 101.936 59.8435 102.012 61.1486C102.161 63.7179 97.3201 63.7262 97.1624 61.5436Z" fill="#FD7F16"/>
<path d="M106.308 59.3257V29.4634C106.484 27.6967 110.785 27.7537 110.785 29.4634C110.785 32.3282 110.774 36.239 110.763 40.2799C110.74 48.779 110.715 57.854 110.785 58.9838C110.923 61.2079 106.454 61.2151 106.308 59.3257Z" fill="#FD7F16"/>
<path d="M36.0341 40.4091V44.3364L47.6998 44.8039V40.5026L36.0341 40.4091Z" fill="#FD7F16"/>
<path d="M36.0341 20.0246V15.9103L47.6998 15.2557V19.7441L36.0341 20.0246Z" fill="#FD7F16"/>
<path fill-rule="evenodd" clip-rule="evenodd" d="M0.0103206 8.05571V77.6249C0.0103316 77.7197 0.00807065 77.8227 0.00566247 77.9326C-0.0228102 79.2309 -0.0718679 81.4679 3.37004 82.0197C7.10307 82.6181 38.336 86.7574 53.4858 88.7522C54.4502 88.9392 56.7709 89.201 58.3388 88.7522C59.9066 88.3033 101.611 76.0976 122.267 70.0508C123.2 69.8638 126 69.0957 126 66.8716C126 66.5057 125.997 65.4148 125.993 63.7898V63.7885V63.7872V63.7859V63.7847V63.7809C125.974 55.8462 125.923 35.2158 126 24.0454C126.009 22.7363 125.627 20.1181 123.2 19.2765C121.853 18.8094 109.598 15.2434 95.3808 11.1064C82.8608 7.46329 68.8192 3.37743 59.3653 0.575154C57.1571 -0.079416 55.5391 -0.079426 53.206 0.107598C52.4869 0.165239 49.2265 0.489572 44.5694 0.952839C33.2041 2.0834 13.5209 4.04139 2.15673 4.96997C0.290367 5.25047 0.0103207 6.55957 0.0103206 8.05571ZM36.1273 7.58817L30.9944 7.9622V80.1495L36.1273 80.8041V77.5313L44.1533 78.4664V82.2067L52.0859 83.0482V6.27907L44.0599 6.74661V10.7674L36.1273 11.0479V7.58817ZM36.0341 44.3364V40.4091L47.6998 40.5026V44.8039L36.0341 44.3364ZM36.0341 15.9103V20.0246L47.6998 19.7441V15.2557L36.0341 15.9103ZM5.23648 76.7833L15.3156 77.9989V74.6326L21.1952 75.2872V78.9339L26.608 79.495V8.24272L21.1952 8.80376V12.4505L15.3156 13.0116V9.45831L5.23648 10.1129V76.7833ZM9.62278 43.9624V39.8481L21.5685 40.0351V44.2429L9.62278 43.9624ZM9.52945 21.7077V17.7804L21.4751 17.2194V21.5207L9.52945 21.7077ZM58.9922 82.8612V6.37256L120.96 24.2324V64.9079L58.9922 82.8612ZM68.6528 19.5007V69.6145C68.8106 72.7852 73.652 72.7731 73.5024 69.0407C73.4264 67.1447 73.4534 51.9155 73.4787 37.6525C73.4907 30.8712 73.5024 24.3083 73.5024 19.5007C73.5024 16.6316 68.843 16.536 68.6528 19.5007ZM78.6839 22.4102V66.3456C78.8416 69.1254 83.683 69.1148 83.5334 65.8425C83.4574 64.1803 83.4845 50.8286 83.5098 38.3241C83.5218 32.3789 83.5334 26.6251 83.5334 22.4102C83.5334 19.8948 78.8741 19.811 78.6839 22.4102ZM88.2031 25.3422V63.614C88.3608 66.0355 93.2022 66.0262 93.0527 63.1758C92.9767 61.7278 93.0037 50.0973 93.029 39.2047C93.041 34.0258 93.0527 29.0138 93.0527 25.3422C93.0527 23.1511 88.3933 23.078 88.2031 25.3422ZM97.1624 27.0475V61.5436C97.3201 63.7262 102.161 63.7179 102.012 61.1486C101.936 59.8435 101.963 49.3604 101.988 39.5424C102 34.8744 102.012 30.3568 102.012 27.0475C102.012 25.0725 97.3525 25.0067 97.1624 27.0475ZM106.308 29.4634V59.3257C106.454 61.2151 110.923 61.2079 110.785 58.9838C110.715 57.854 110.74 48.779 110.763 40.2799C110.774 36.239 110.785 32.3282 110.785 29.4634C110.785 27.7537 106.484 27.6967 106.308 29.4634Z" fill="#FD7F16"/>
</svg>
